<mxfile host="app.diagrams.net" agent="Mozilla/5.0 (Macintosh; Intel Mac OS X 10.15; rv:141.0) Gecko/20100101 Firefox/141.0" version="28.1.1">
  <diagram name="Page-1" id="q3n8ZEGxXDpEtiMqKn5M">
    <mxGraphModel dx="2182" dy="774" grid="1" gridSize="10" guides="1" tooltips="1" connect="1" arrows="1" fold="1" page="1" pageScale="1" pageWidth="850" pageHeight="1100" math="0" shadow="0">
      <root>
        <mxCell id="0" />
        <mxCell id="1" parent="0" />
        <mxCell id="6G3nyVBlylBJD105i-X0-64" value="" style="rounded=0;whiteSpace=wrap;html=1;" vertex="1" parent="1">
          <mxGeometry x="290" y="170" width="900" height="370" as="geometry" />
        </mxCell>
        <mxCell id="0xNz1WRSWrmB9gClnGDd-1" value="upstram" style="rounded=0;whiteSpace=wrap;html=1;" parent="1" vertex="1">
          <mxGeometry x="-10" y="240" width="90" height="60" as="geometry" />
        </mxCell>
        <mxCell id="0xNz1WRSWrmB9gClnGDd-2" value="input dir" style="rounded=0;whiteSpace=wrap;html=1;" parent="1" vertex="1">
          <mxGeometry x="160" y="300" width="90" height="60" as="geometry" />
        </mxCell>
        <mxCell id="0xNz1WRSWrmB9gClnGDd-3" value="" style="endArrow=classic;html=1;rounded=0;exitX=1;exitY=0.5;exitDx=0;exitDy=0;entryX=0;entryY=0.5;entryDx=0;entryDy=0;" parent="1" source="0xNz1WRSWrmB9gClnGDd-1" target="0xNz1WRSWrmB9gClnGDd-2" edge="1">
          <mxGeometry width="50" height="50" relative="1" as="geometry">
            <mxPoint x="140" y="450" as="sourcePoint" />
            <mxPoint x="190" y="400" as="targetPoint" />
          </mxGeometry>
        </mxCell>
        <mxCell id="0xNz1WRSWrmB9gClnGDd-4" value="&lt;div&gt;sfpt&lt;/div&gt;&lt;div&gt;push&lt;/div&gt;" style="edgeLabel;html=1;align=center;verticalAlign=middle;resizable=0;points=[];" parent="0xNz1WRSWrmB9gClnGDd-3" vertex="1" connectable="0">
          <mxGeometry x="0.12" y="-2" relative="1" as="geometry">
            <mxPoint x="-5" y="-2" as="offset" />
          </mxGeometry>
        </mxCell>
        <mxCell id="0xNz1WRSWrmB9gClnGDd-5" value="read file input" style="rounded=1;whiteSpace=wrap;html=1;" parent="1" vertex="1">
          <mxGeometry x="400" y="300" width="80" height="60" as="geometry" />
        </mxCell>
        <mxCell id="6G3nyVBlylBJD105i-X0-13" value="Grafana" style="strokeWidth=2;html=1;shape=mxgraph.flowchart.direct_data;whiteSpace=wrap;" vertex="1" parent="1">
          <mxGeometry x="687.5" y="30" width="105" height="70" as="geometry" />
        </mxCell>
        <mxCell id="6G3nyVBlylBJD105i-X0-16" value="upstram" style="rounded=0;whiteSpace=wrap;html=1;" vertex="1" parent="1">
          <mxGeometry x="-10" y="360" width="90" height="60" as="geometry" />
        </mxCell>
        <mxCell id="6G3nyVBlylBJD105i-X0-17" value="" style="endArrow=classic;html=1;rounded=0;entryX=0;entryY=0.5;entryDx=0;entryDy=0;exitX=1;exitY=0.5;exitDx=0;exitDy=0;" edge="1" parent="1" source="6G3nyVBlylBJD105i-X0-16" target="0xNz1WRSWrmB9gClnGDd-2">
          <mxGeometry width="50" height="50" relative="1" as="geometry">
            <mxPoint x="450" y="330" as="sourcePoint" />
            <mxPoint x="500" y="280" as="targetPoint" />
          </mxGeometry>
        </mxCell>
        <mxCell id="6G3nyVBlylBJD105i-X0-18" value="mft push" style="edgeLabel;html=1;align=center;verticalAlign=middle;resizable=0;points=[];" vertex="1" connectable="0" parent="6G3nyVBlylBJD105i-X0-17">
          <mxGeometry x="0.04" y="1" relative="1" as="geometry">
            <mxPoint as="offset" />
          </mxGeometry>
        </mxCell>
        <mxCell id="6G3nyVBlylBJD105i-X0-58" value="" style="strokeWidth=2;html=1;shape=mxgraph.flowchart.direct_data;whiteSpace=wrap;" vertex="1" parent="1">
          <mxGeometry x="610" y="300" width="640" height="190" as="geometry" />
        </mxCell>
        <mxCell id="6G3nyVBlylBJD105i-X0-59" value="" style="strokeWidth=2;html=1;shape=mxgraph.flowchart.direct_data;whiteSpace=wrap;fontColor=#ABABAB;" vertex="1" parent="1">
          <mxGeometry x="580" y="270" width="640" height="190" as="geometry" />
        </mxCell>
        <mxCell id="6G3nyVBlylBJD105i-X0-21" value="" style="group;labelBorderColor=none;labelBackgroundColor=none;fontColor=#5DFF35;" vertex="1" connectable="0" parent="1">
          <mxGeometry x="580" y="240" width="740" height="200" as="geometry" />
        </mxCell>
        <mxCell id="6G3nyVBlylBJD105i-X0-19" value="" style="group;dashed=1;dashPattern=1 2;fillColor=default;fontColor=#39FF32;" vertex="1" connectable="0" parent="6G3nyVBlylBJD105i-X0-21">
          <mxGeometry width="640" height="200" as="geometry" />
        </mxCell>
        <mxCell id="6G3nyVBlylBJD105i-X0-20" value="" style="strokeWidth=2;html=1;shape=mxgraph.flowchart.direct_data;whiteSpace=wrap;" vertex="1" parent="6G3nyVBlylBJD105i-X0-19">
          <mxGeometry x="-20" width="620" height="190" as="geometry" />
        </mxCell>
        <mxCell id="0xNz1WRSWrmB9gClnGDd-52" value="verify checksum" style="rounded=1;whiteSpace=wrap;html=1;" parent="6G3nyVBlylBJD105i-X0-19" vertex="1">
          <mxGeometry y="55" width="90" height="60" as="geometry" />
        </mxCell>
        <mxCell id="0xNz1WRSWrmB9gClnGDd-53" value="unpack" style="rounded=1;whiteSpace=wrap;html=1;" parent="6G3nyVBlylBJD105i-X0-19" vertex="1">
          <mxGeometry x="120" y="55" width="60" height="60" as="geometry" />
        </mxCell>
        <mxCell id="0xNz1WRSWrmB9gClnGDd-54" value="verify content" style="rounded=1;whiteSpace=wrap;html=1;" parent="6G3nyVBlylBJD105i-X0-19" vertex="1">
          <mxGeometry x="210" y="55" width="60" height="60" as="geometry" />
        </mxCell>
        <mxCell id="0xNz1WRSWrmB9gClnGDd-55" value="order" style="rounded=1;whiteSpace=wrap;html=1;" parent="6G3nyVBlylBJD105i-X0-19" vertex="1">
          <mxGeometry x="300" y="55" width="60" height="60" as="geometry" />
        </mxCell>
        <mxCell id="0xNz1WRSWrmB9gClnGDd-56" value="send to cloud" style="rounded=1;whiteSpace=wrap;html=1;" parent="6G3nyVBlylBJD105i-X0-19" vertex="1">
          <mxGeometry x="420" y="10" width="60" height="60" as="geometry" />
        </mxCell>
        <mxCell id="0xNz1WRSWrmB9gClnGDd-57" value="" style="endArrow=classic;html=1;rounded=0;exitX=1;exitY=0.5;exitDx=0;exitDy=0;entryX=0;entryY=0.5;entryDx=0;entryDy=0;" parent="6G3nyVBlylBJD105i-X0-19" source="0xNz1WRSWrmB9gClnGDd-52" target="0xNz1WRSWrmB9gClnGDd-53" edge="1">
          <mxGeometry width="50" height="50" relative="1" as="geometry">
            <mxPoint x="100" y="35" as="sourcePoint" />
            <mxPoint x="150" y="-15" as="targetPoint" />
          </mxGeometry>
        </mxCell>
        <mxCell id="0xNz1WRSWrmB9gClnGDd-58" value="" style="endArrow=classic;html=1;rounded=0;exitX=1;exitY=0.5;exitDx=0;exitDy=0;entryX=0;entryY=0.5;entryDx=0;entryDy=0;" parent="6G3nyVBlylBJD105i-X0-19" source="0xNz1WRSWrmB9gClnGDd-53" target="0xNz1WRSWrmB9gClnGDd-54" edge="1">
          <mxGeometry width="50" height="50" relative="1" as="geometry">
            <mxPoint x="240" y="245" as="sourcePoint" />
            <mxPoint x="290" y="195" as="targetPoint" />
          </mxGeometry>
        </mxCell>
        <mxCell id="0xNz1WRSWrmB9gClnGDd-59" value="" style="endArrow=classic;html=1;rounded=0;exitX=1;exitY=0.5;exitDx=0;exitDy=0;entryX=0;entryY=0.5;entryDx=0;entryDy=0;" parent="6G3nyVBlylBJD105i-X0-19" source="0xNz1WRSWrmB9gClnGDd-54" target="0xNz1WRSWrmB9gClnGDd-55" edge="1">
          <mxGeometry width="50" height="50" relative="1" as="geometry">
            <mxPoint x="240" y="245" as="sourcePoint" />
            <mxPoint x="290" y="195" as="targetPoint" />
          </mxGeometry>
        </mxCell>
        <mxCell id="0xNz1WRSWrmB9gClnGDd-60" value="" style="endArrow=classic;html=1;rounded=0;exitX=1;exitY=0.5;exitDx=0;exitDy=0;entryX=0;entryY=0.5;entryDx=0;entryDy=0;" parent="6G3nyVBlylBJD105i-X0-19" source="0xNz1WRSWrmB9gClnGDd-55" target="0xNz1WRSWrmB9gClnGDd-56" edge="1">
          <mxGeometry width="50" height="50" relative="1" as="geometry">
            <mxPoint x="240" y="245" as="sourcePoint" />
            <mxPoint x="290" y="195" as="targetPoint" />
          </mxGeometry>
        </mxCell>
        <mxCell id="6G3nyVBlylBJD105i-X0-4" value="send with mft" style="rounded=1;whiteSpace=wrap;html=1;" vertex="1" parent="6G3nyVBlylBJD105i-X0-19">
          <mxGeometry x="420" y="115" width="60" height="60" as="geometry" />
        </mxCell>
        <mxCell id="6G3nyVBlylBJD105i-X0-7" value="" style="endArrow=classic;html=1;rounded=0;entryX=0;entryY=0.5;entryDx=0;entryDy=0;" edge="1" parent="6G3nyVBlylBJD105i-X0-19" target="6G3nyVBlylBJD105i-X0-4">
          <mxGeometry width="50" height="50" relative="1" as="geometry">
            <mxPoint x="360" y="85" as="sourcePoint" />
            <mxPoint x="360" y="185" as="targetPoint" />
          </mxGeometry>
        </mxCell>
        <mxCell id="0xNz1WRSWrmB9gClnGDd-61" value="Azure" style="ellipse;shape=cloud;whiteSpace=wrap;html=1;" parent="6G3nyVBlylBJD105i-X0-21" vertex="1">
          <mxGeometry x="620" width="120" height="80" as="geometry" />
        </mxCell>
        <mxCell id="6G3nyVBlylBJD105i-X0-11" value="" style="endArrow=classic;html=1;rounded=0;" edge="1" parent="6G3nyVBlylBJD105i-X0-21" source="0xNz1WRSWrmB9gClnGDd-56" target="0xNz1WRSWrmB9gClnGDd-61">
          <mxGeometry width="50" height="50" relative="1" as="geometry">
            <mxPoint x="310" y="230" as="sourcePoint" />
            <mxPoint x="360" y="180" as="targetPoint" />
          </mxGeometry>
        </mxCell>
        <mxCell id="6G3nyVBlylBJD105i-X0-9" value="MQ MFT" style="strokeWidth=2;html=1;shape=mxgraph.flowchart.direct_data;whiteSpace=wrap;" vertex="1" parent="6G3nyVBlylBJD105i-X0-21">
          <mxGeometry x="620" y="110" width="105" height="70" as="geometry" />
        </mxCell>
        <mxCell id="6G3nyVBlylBJD105i-X0-12" value="" style="endArrow=classic;html=1;rounded=0;" edge="1" parent="6G3nyVBlylBJD105i-X0-21" source="6G3nyVBlylBJD105i-X0-4" target="6G3nyVBlylBJD105i-X0-9">
          <mxGeometry width="50" height="50" relative="1" as="geometry">
            <mxPoint x="310" y="230" as="sourcePoint" />
            <mxPoint x="360" y="180" as="targetPoint" />
          </mxGeometry>
        </mxCell>
        <mxCell id="6G3nyVBlylBJD105i-X0-60" value="" style="endArrow=classic;html=1;rounded=0;exitX=1;exitY=0.5;exitDx=0;exitDy=0;entryX=0;entryY=0.453;entryDx=0;entryDy=0;entryPerimeter=0;" edge="1" parent="1" source="0xNz1WRSWrmB9gClnGDd-5" target="6G3nyVBlylBJD105i-X0-20">
          <mxGeometry width="50" height="50" relative="1" as="geometry">
            <mxPoint x="850" y="410" as="sourcePoint" />
            <mxPoint x="900" y="360" as="targetPoint" />
          </mxGeometry>
        </mxCell>
        <mxCell id="6G3nyVBlylBJD105i-X0-61" value="" style="endArrow=classic;html=1;rounded=0;exitX=1;exitY=0.5;exitDx=0;exitDy=0;" edge="1" parent="1" source="0xNz1WRSWrmB9gClnGDd-5">
          <mxGeometry width="50" height="50" relative="1" as="geometry">
            <mxPoint x="850" y="410" as="sourcePoint" />
            <mxPoint x="580" y="410" as="targetPoint" />
          </mxGeometry>
        </mxCell>
        <mxCell id="6G3nyVBlylBJD105i-X0-62" value="" style="endArrow=classic;html=1;rounded=0;exitX=1;exitY=0.5;exitDx=0;exitDy=0;entryX=0.034;entryY=0.879;entryDx=0;entryDy=0;entryPerimeter=0;" edge="1" parent="1" source="0xNz1WRSWrmB9gClnGDd-5" target="6G3nyVBlylBJD105i-X0-58">
          <mxGeometry width="50" height="50" relative="1" as="geometry">
            <mxPoint x="850" y="410" as="sourcePoint" />
            <mxPoint x="900" y="360" as="targetPoint" />
          </mxGeometry>
        </mxCell>
        <mxCell id="6G3nyVBlylBJD105i-X0-63" value="workers" style="edgeLabel;html=1;align=center;verticalAlign=middle;resizable=0;points=[];" vertex="1" connectable="0" parent="6G3nyVBlylBJD105i-X0-62">
          <mxGeometry x="-0.5005" y="2" relative="1" as="geometry">
            <mxPoint as="offset" />
          </mxGeometry>
        </mxCell>
        <mxCell id="6G3nyVBlylBJD105i-X0-65" value="" style="endArrow=classic;html=1;rounded=0;entryX=0.5;entryY=1;entryDx=0;entryDy=0;entryPerimeter=0;exitX=0.5;exitY=0;exitDx=0;exitDy=0;" edge="1" parent="1" source="6G3nyVBlylBJD105i-X0-64" target="6G3nyVBlylBJD105i-X0-13">
          <mxGeometry width="50" height="50" relative="1" as="geometry">
            <mxPoint x="550" y="410" as="sourcePoint" />
            <mxPoint x="600" y="360" as="targetPoint" />
          </mxGeometry>
        </mxCell>
        <mxCell id="6G3nyVBlylBJD105i-X0-66" value="Airflow" style="text;html=1;align=center;verticalAlign=middle;whiteSpace=wrap;rounded=0;" vertex="1" parent="1">
          <mxGeometry x="340" y="170" width="60" height="30" as="geometry" />
        </mxCell>
        <mxCell id="0xNz1WRSWrmB9gClnGDd-73" value="" style="endArrow=classic;html=1;rounded=0;entryX=1;entryY=0.5;entryDx=0;entryDy=0;exitX=0;exitY=0.5;exitDx=0;exitDy=0;startArrow=classic;startFill=0;" parent="1" source="0xNz1WRSWrmB9gClnGDd-5" target="0xNz1WRSWrmB9gClnGDd-2" edge="1">
          <mxGeometry width="50" height="50" relative="1" as="geometry">
            <mxPoint x="730" y="410" as="sourcePoint" />
            <mxPoint x="780" y="360" as="targetPoint" />
          </mxGeometry>
        </mxCell>
        <mxCell id="6G3nyVBlylBJD105i-X0-1" value="time-based&lt;br&gt;or&lt;br&gt;new-file-based" style="edgeLabel;html=1;align=center;verticalAlign=middle;resizable=0;points=[];" vertex="1" connectable="0" parent="0xNz1WRSWrmB9gClnGDd-73">
          <mxGeometry x="-0.0333" y="1" relative="1" as="geometry">
            <mxPoint as="offset" />
          </mxGeometry>
        </mxCell>
      </root>
    </mxGraphModel>
  </diagram>
</mxfile>
